<?xml version="1.0" encoding="utf-8" standalone="no"?>
<!DOCTYPE svg PUBLIC "-//W3C//DTD SVG 1.1//EN"
  "http://www.w3.org/Graphics/SVG/1.1/DTD/svg11.dtd">
<svg xmlns:xlink="http://www.w3.org/1999/xlink" width="530.8pt" height="246.500853pt" viewBox="0 0 530.8 246.500853" xmlns="http://www.w3.org/2000/svg" version="1.1">
 <metadata>
  <rdf:RDF xmlns:dc="http://purl.org/dc/elements/1.1/" xmlns:cc="http://creativecommons.org/ns#" xmlns:rdf="http://www.w3.org/1999/02/22-rdf-syntax-ns#">
   <cc:Work>
    <dc:type rdf:resource="http://purl.org/dc/dcmitype/StillImage"/>
    <dc:date>2026-06-04T13:41:14.456435</dc:date>
    <dc:format>image/svg+xml</dc:format>
    <dc:creator>
     <cc:Agent>
      <dc:title>Matplotlib v3.8.3, https://matplotlib.org/</dc:title>
     </cc:Agent>
    </dc:creator>
   </cc:Work>
  </rdf:RDF>
 </metadata>
 <defs>
  <style type="text/css">*{stroke-linejoin: round; stroke-linecap: butt}</style>
 </defs>
 <g id="figure_1">
  <g id="patch_1">
   <path d="M 0 246.500853 
L 530.8 246.500853 
L 530.8 0 
L 0 0 
z
" style="fill: #ffffff"/>
  </g>
  <g id="axes_1">
   <g id="LineCollection_1">
    <path d="M 50.233333 161.1873 
L 121.955556 37.99746 
" clip-path="url(#p8d3a945fbc)" style="fill: none; stroke: #8c8c8c; stroke-opacity: 0.38; stroke-width: 1.4"/>
    <path d="M 121.955556 161.1873 
L 265.4 37.99746 
" clip-path="url(#p8d3a945fbc)" style="fill: none; stroke: #8c8c8c; stroke-opacity: 0.38; stroke-width: 1.4"/>
    <path d="M 193.677778 161.1873 
L 265.4 37.99746 
" clip-path="url(#p8d3a945fbc)" style="fill: none; stroke: #8c8c8c; stroke-opacity: 0.38; stroke-width: 1.4"/>
    <path d="M 337.122222 161.1873 
L 121.955556 37.99746 
" clip-path="url(#p8d3a945fbc)" style="fill: none; stroke: #8c8c8c; stroke-opacity: 0.38; stroke-width: 1.4"/>
    <path d="M 337.122222 161.1873 
L 408.844444 37.99746 
" clip-path="url(#p8d3a945fbc)" style="fill: none; stroke: #8c8c8c; stroke-opacity: 0.38; stroke-width: 1.4"/>
    <path d="M 408.844444 161.1873 
L 265.4 37.99746 
" clip-path="url(#p8d3a945fbc)" style="fill: none; stroke: #8c8c8c; stroke-opacity: 0.38; stroke-width: 1.4"/>
    <path d="M 408.844444 161.1873 
L 408.844444 37.99746 
" clip-path="url(#p8d3a945fbc)" style="fill: none; stroke: #8c8c8c; stroke-opacity: 0.38; stroke-width: 1.4"/>
    <path d="M 480.566667 161.1873 
L 121.955556 37.99746 
" clip-path="url(#p8d3a945fbc)" style="fill: none; stroke: #8c8c8c; stroke-opacity: 0.38; stroke-width: 1.4"/>
    <path d="M 480.566667 161.1873 
L 265.4 37.99746 
" clip-path="url(#p8d3a945fbc)" style="fill: none; stroke: #8c8c8c; stroke-opacity: 0.38; stroke-width: 1.4"/>
    <path d="M 480.566667 161.1873 
L 408.844444 37.99746 
" clip-path="url(#p8d3a945fbc)" style="fill: none; stroke: #8c8c8c; stroke-opacity: 0.38; stroke-width: 1.4"/>
   </g>
   <g id="LineCollection_2">
    <path d="M 121.955556 37.99746 
L 193.677778 161.1873 
" clip-path="url(#p8d3a945fbc)" style="fill: none; stroke-dasharray: 8.88,3.84; stroke-dashoffset: 0; stroke: #d00000; stroke-opacity: 0.95; stroke-width: 2.4"/>
    <path d="M 408.844444 37.99746 
L 265.4 161.1873 
" clip-path="url(#p8d3a945fbc)" style="fill: none; stroke-dasharray: 8.88,3.84; stroke-dashoffset: 0; stroke: #d00000; stroke-opacity: 0.95; stroke-width: 2.4"/>
   </g>
   <g id="LineCollection_3">
    <path d="M 408.844444 37.99746 
L 193.677778 161.1873 
" clip-path="url(#p8d3a945fbc)" style="fill: none; stroke: #007a5e; stroke-opacity: 0.95; stroke-width: 2.4"/>
    <path d="M 121.955556 37.99746 
L 265.4 161.1873 
" clip-path="url(#p8d3a945fbc)" style="fill: none; stroke: #007a5e; stroke-opacity: 0.95; stroke-width: 2.4"/>
   </g>
   <g id="PathCollection_1">
    <defs>
     <path id="C0_0_398ebc7690" d="M 0 13.96424 
C 3.70336 13.96424 7.255538 12.49288 9.874209 9.874209 
C 12.49288 7.255538 13.96424 3.70336 13.96424 -0 
C 13.96424 -3.70336 12.49288 -7.255538 9.874209 -9.874209 
C 7.255538 -12.49288 3.70336 -13.96424 0 -13.96424 
C -3.70336 -13.96424 -7.255538 -12.49288 -9.874209 -9.874209 
C -12.49288 -7.255538 -13.96424 -3.70336 -13.96424 0 
C -13.96424 3.70336 -12.49288 7.255538 -9.874209 9.874209 
C -7.255538 12.49288 -3.70336 13.96424 0 13.96424 
z
"/>
    </defs>
    <g clip-path="url(#p8d3a945fbc)">
     <use xlink:href="#C0_0_398ebc7690" x="50.233333" y="161.1873" style="fill: #f08080"/>
    </g>
    <g clip-path="url(#p8d3a945fbc)">
     <use xlink:href="#C0_0_398ebc7690" x="121.955556" y="161.1873" style="fill: #f08080"/>
    </g>
    <g clip-path="url(#p8d3a945fbc)">
     <use xlink:href="#C0_0_398ebc7690" x="265.4" y="161.1873" style="fill: #f08080"/>
    </g>
    <g clip-path="url(#p8d3a945fbc)">
     <use xlink:href="#C0_0_398ebc7690" x="480.566667" y="161.1873" style="fill: #f08080"/>
    </g>
   </g>
   <g id="PathCollection_2">
    <defs>
     <path id="m83fd429945" d="M 0 14.57738 
C 3.865966 14.57738 7.574113 13.041415 10.307764 10.307764 
C 13.041415 7.574113 14.57738 3.865966 14.57738 0 
C 14.57738 -3.865966 13.041415 -7.574113 10.307764 -10.307764 
C 7.574113 -13.041415 3.865966 -14.57738 0 -14.57738 
C -3.865966 -14.57738 -7.574113 -13.041415 -10.307764 -10.307764 
C -13.041415 -7.574113 -14.57738 -3.865966 -14.57738 0 
C -14.57738 3.865966 -13.041415 7.574113 -10.307764 10.307764 
C -7.574113 13.041415 -3.865966 14.57738 0 14.57738 
z
" style="stroke: #b00000; stroke-width: 2.3"/>
    </defs>
    <g clip-path="url(#p8d3a945fbc)">
     <use xlink:href="#m83fd429945" x="193.677778" y="161.1873" style="fill: #f08080; stroke: #b00000; stroke-width: 2.3"/>
     <use xlink:href="#m83fd429945" x="337.122222" y="161.1873" style="fill: #f08080; stroke: #b00000; stroke-width: 2.3"/>
     <use xlink:href="#m83fd429945" x="408.844444" y="161.1873" style="fill: #f08080; stroke: #b00000; stroke-width: 2.3"/>
    </g>
   </g>
   <g id="PathCollection_3">
    <path d="M 107.991316 51.9617 
L 135.919796 51.9617 
L 135.919796 24.03322 
L 107.991316 24.03322 
z
" clip-path="url(#p8d3a945fbc)" style="fill: #87ceeb"/>
    <path d="M 251.43576 51.9617 
L 279.36424 51.9617 
L 279.36424 24.03322 
L 251.43576 24.03322 
z
" clip-path="url(#p8d3a945fbc)" style="fill: #87ceeb"/>
    <path d="M 394.880204 51.9617 
L 422.808684 51.9617 
L 422.808684 24.03322 
L 394.880204 24.03322 
z
" clip-path="url(#p8d3a945fbc)" style="fill: #87ceeb"/>
   </g>
   <g id="text_1">
    <g clip-path="url(#p8d3a945fbc)">
     <!-- $v_1$ -->
     <g transform="translate(42.208333 165.326362) scale(0.15 -0.15)">
      <defs>
       <path id="DejaVuSans-Oblique-76" d="M 459 3500 
L 1069 3500 
L 1581 525 
L 3256 3500 
L 3866 3500 
L 1875 0 
L 1100 0 
L 459 3500 
z
" transform="scale(0.015625)"/>
       <path id="DejaVuSans-31" d="M 794 531 
L 1825 531 
L 1825 4091 
L 703 3866 
L 703 4441 
L 1819 4666 
L 2450 4666 
L 2450 531 
L 3481 531 
L 3481 0 
L 794 0 
L 794 531 
z
" transform="scale(0.015625)"/>
      </defs>
      <use xlink:href="#DejaVuSans-Oblique-76" transform="translate(0 0.3125)"/>
      <use xlink:href="#DejaVuSans-31" transform="translate(59.179688 -16.09375) scale(0.7)"/>
     </g>
    </g>
   </g>
   <g id="text_2">
    <g clip-path="url(#p8d3a945fbc)">
     <!-- $v_2$ -->
     <g transform="translate(113.930556 165.326362) scale(0.15 -0.15)">
      <defs>
       <path id="DejaVuSans-32" d="M 1228 531 
L 3431 531 
L 3431 0 
L 469 0 
L 469 531 
Q 828 903 1448 1529 
Q 2069 2156 2228 2338 
Q 2531 2678 2651 2914 
Q 2772 3150 2772 3378 
Q 2772 3750 2511 3984 
Q 2250 4219 1831 4219 
Q 1534 4219 1204 4116 
Q 875 4013 500 3803 
L 500 4441 
Q 881 4594 1212 4672 
Q 1544 4750 1819 4750 
Q 2544 4750 2975 4387 
Q 3406 4025 3406 3419 
Q 3406 3131 3298 2873 
Q 3191 2616 2906 2266 
Q 2828 2175 2409 1742 
Q 1991 1309 1228 531 
z
" transform="scale(0.015625)"/>
      </defs>
      <use xlink:href="#DejaVuSans-Oblique-76" transform="translate(0 0.3125)"/>
      <use xlink:href="#DejaVuSans-32" transform="translate(59.179688 -16.09375) scale(0.7)"/>
     </g>
    </g>
   </g>
   <g id="text_3">
    <g clip-path="url(#p8d3a945fbc)">
     <!-- $v_3$ -->
     <g transform="translate(185.652778 165.326362) scale(0.15 -0.15)">
      <defs>
       <path id="DejaVuSans-33" d="M 2597 2516 
Q 3050 2419 3304 2112 
Q 3559 1806 3559 1356 
Q 3559 666 3084 287 
Q 2609 -91 1734 -91 
Q 1441 -91 1130 -33 
Q 819 25 488 141 
L 488 750 
Q 750 597 1062 519 
Q 1375 441 1716 441 
Q 2309 441 2620 675 
Q 2931 909 2931 1356 
Q 2931 1769 2642 2001 
Q 2353 2234 1838 2234 
L 1294 2234 
L 1294 2753 
L 1863 2753 
Q 2328 2753 2575 2939 
Q 2822 3125 2822 3475 
Q 2822 3834 2567 4026 
Q 2313 4219 1838 4219 
Q 1578 4219 1281 4162 
Q 984 4106 628 3988 
L 628 4550 
Q 988 4650 1302 4700 
Q 1616 4750 1894 4750 
Q 2613 4750 3031 4423 
Q 3450 4097 3450 3541 
Q 3450 3153 3228 2886 
Q 3006 2619 2597 2516 
z
" transform="scale(0.015625)"/>
      </defs>
      <use xlink:href="#DejaVuSans-Oblique-76" transform="translate(0 0.3125)"/>
      <use xlink:href="#DejaVuSans-33" transform="translate(59.179688 -16.09375) scale(0.7)"/>
     </g>
    </g>
   </g>
   <g id="text_4">
    <g clip-path="url(#p8d3a945fbc)">
     <!-- $v_4$ -->
     <g transform="translate(257.375 165.326362) scale(0.15 -0.15)">
      <defs>
       <path id="DejaVuSans-34" d="M 2419 4116 
L 825 1625 
L 2419 1625 
L 2419 4116 
z
M 2253 4666 
L 3047 4666 
L 3047 1625 
L 3713 1625 
L 3713 1100 
L 3047 1100 
L 3047 0 
L 2419 0 
L 2419 1100 
L 313 1100 
L 313 1709 
L 2253 4666 
z
" transform="scale(0.015625)"/>
      </defs>
      <use xlink:href="#DejaVuSans-Oblique-76" transform="translate(0 0.3125)"/>
      <use xlink:href="#DejaVuSans-34" transform="translate(59.179688 -16.09375) scale(0.7)"/>
     </g>
    </g>
   </g>
   <g id="text_5">
    <g clip-path="url(#p8d3a945fbc)">
     <!-- $v_5$ -->
     <g transform="translate(329.097222 165.326362) scale(0.15 -0.15)">
      <defs>
       <path id="DejaVuSans-35" d="M 691 4666 
L 3169 4666 
L 3169 4134 
L 1269 4134 
L 1269 2991 
Q 1406 3038 1543 3061 
Q 1681 3084 1819 3084 
Q 2600 3084 3056 2656 
Q 3513 2228 3513 1497 
Q 3513 744 3044 326 
Q 2575 -91 1722 -91 
Q 1428 -91 1123 -41 
Q 819 9 494 109 
L 494 744 
Q 775 591 1075 516 
Q 1375 441 1709 441 
Q 2250 441 2565 725 
Q 2881 1009 2881 1497 
Q 2881 1984 2565 2268 
Q 2250 2553 1709 2553 
Q 1456 2553 1204 2497 
Q 953 2441 691 2322 
L 691 4666 
z
" transform="scale(0.015625)"/>
      </defs>
      <use xlink:href="#DejaVuSans-Oblique-76" transform="translate(0 0.3125)"/>
      <use xlink:href="#DejaVuSans-35" transform="translate(59.179688 -16.09375) scale(0.7)"/>
     </g>
    </g>
   </g>
   <g id="text_6">
    <g clip-path="url(#p8d3a945fbc)">
     <!-- $v_6$ -->
     <g transform="translate(400.819444 165.326362) scale(0.15 -0.15)">
      <defs>
       <path id="DejaVuSans-36" d="M 2113 2584 
Q 1688 2584 1439 2293 
Q 1191 2003 1191 1497 
Q 1191 994 1439 701 
Q 1688 409 2113 409 
Q 2538 409 2786 701 
Q 3034 994 3034 1497 
Q 3034 2003 2786 2293 
Q 2538 2584 2113 2584 
z
M 3366 4563 
L 3366 3988 
Q 3128 4100 2886 4159 
Q 2644 4219 2406 4219 
Q 1781 4219 1451 3797 
Q 1122 3375 1075 2522 
Q 1259 2794 1537 2939 
Q 1816 3084 2150 3084 
Q 2853 3084 3261 2657 
Q 3669 2231 3669 1497 
Q 3669 778 3244 343 
Q 2819 -91 2113 -91 
Q 1303 -91 875 529 
Q 447 1150 447 2328 
Q 447 3434 972 4092 
Q 1497 4750 2381 4750 
Q 2619 4750 2861 4703 
Q 3103 4656 3366 4563 
z
" transform="scale(0.015625)"/>
      </defs>
      <use xlink:href="#DejaVuSans-Oblique-76" transform="translate(0 0.3125)"/>
      <use xlink:href="#DejaVuSans-36" transform="translate(59.179688 -16.09375) scale(0.7)"/>
     </g>
    </g>
   </g>
   <g id="text_7">
    <g clip-path="url(#p8d3a945fbc)">
     <!-- $v_7$ -->
     <g transform="translate(472.541667 165.326362) scale(0.15 -0.15)">
      <defs>
       <path id="DejaVuSans-37" d="M 525 4666 
L 3525 4666 
L 3525 4397 
L 1831 0 
L 1172 0 
L 2766 4134 
L 525 4134 
L 525 4666 
z
" transform="scale(0.015625)"/>
      </defs>
      <use xlink:href="#DejaVuSans-Oblique-76" transform="translate(0 0.3125)"/>
      <use xlink:href="#DejaVuSans-37" transform="translate(59.179688 -16.09375) scale(0.7)"/>
     </g>
    </g>
   </g>
   <g id="text_8">
    <g clip-path="url(#p8d3a945fbc)">
     <!-- $c_1$ -->
     <g transform="translate(114.230556 42.136523) scale(0.15 -0.15)">
      <defs>
       <path id="DejaVuSans-Oblique-63" d="M 3431 3366 
L 3316 2797 
Q 3109 2947 2876 3022 
Q 2644 3097 2394 3097 
Q 2119 3097 1870 3000 
Q 1622 2903 1453 2725 
Q 1184 2453 1037 2087 
Q 891 1722 891 1331 
Q 891 859 1127 628 
Q 1363 397 1844 397 
Q 2081 397 2348 469 
Q 2616 541 2906 684 
L 2797 116 
Q 2547 13 2283 -39 
Q 2019 -91 1741 -91 
Q 1044 -91 669 257 
Q 294 606 294 1253 
Q 294 1797 489 2255 
Q 684 2713 1069 3078 
Q 1331 3328 1684 3456 
Q 2038 3584 2456 3584 
Q 2700 3584 2940 3529 
Q 3181 3475 3431 3366 
z
" transform="scale(0.015625)"/>
      </defs>
      <use xlink:href="#DejaVuSans-Oblique-63"/>
      <use xlink:href="#DejaVuSans-31" transform="translate(54.980469 -16.40625) scale(0.7)"/>
     </g>
    </g>
   </g>
   <g id="text_9">
    <g clip-path="url(#p8d3a945fbc)">
     <!-- $c_2$ -->
     <g transform="translate(257.675 42.136523) scale(0.15 -0.15)">
      <use xlink:href="#DejaVuSans-Oblique-63"/>
      <use xlink:href="#DejaVuSans-32" transform="translate(54.980469 -16.40625) scale(0.7)"/>
     </g>
    </g>
   </g>
   <g id="text_10">
    <g clip-path="url(#p8d3a945fbc)">
     <!-- $c_3$ -->
     <g transform="translate(401.119444 42.136523) scale(0.15 -0.15)">
      <use xlink:href="#DejaVuSans-Oblique-63"/>
      <use xlink:href="#DejaVuSans-33" transform="translate(54.980469 -16.40625) scale(0.7)"/>
     </g>
    </g>
   </g>
   <g id="text_11">
    <!-- $E$ -->
    <g style="fill: #b00000" transform="translate(187.917778 205.661947) scale(0.18 -0.18)">
     <defs>
      <path id="DejaVuSans-Oblique-45" d="M 1081 4666 
L 4031 4666 
L 3928 4134 
L 1606 4134 
L 1338 2753 
L 3566 2753 
L 3463 2222 
L 1234 2222 
L 909 531 
L 3284 531 
L 3181 0 
L 172 0 
L 1081 4666 
z
" transform="scale(0.015625)"/>
     </defs>
     <use xlink:href="#DejaVuSans-Oblique-45" transform="translate(0 0.09375)"/>
    </g>
   </g>
   <g id="text_12">
    <!-- $E$ -->
    <g style="fill: #b00000" transform="translate(331.362222 205.661947) scale(0.18 -0.18)">
     <use xlink:href="#DejaVuSans-Oblique-45" transform="translate(0 0.09375)"/>
    </g>
   </g>
   <g id="text_13">
    <!-- $E$ -->
    <g style="fill: #b00000" transform="translate(403.084444 205.661947) scale(0.18 -0.18)">
     <use xlink:href="#DejaVuSans-Oblique-45" transform="translate(0 0.09375)"/>
    </g>
   </g>
   <g id="legend_1">
    <g id="line2d_1">
     <path d="M 87.892187 229.721165 
L 100.392187 229.721165 
L 112.892187 229.721165 
" style="fill: none; stroke-dasharray: 8.88,3.84; stroke-dashoffset: 0; stroke: #d00000; stroke-width: 2.4"/>
    </g>
    <g id="text_14">
     <!-- removed edge -->
     <g transform="translate(120.892187 233.221165) scale(0.1 -0.1)">
      <defs>
       <path id="DejaVuSans-72" d="M 2631 2963 
Q 2534 3019 2420 3045 
Q 2306 3072 2169 3072 
Q 1681 3072 1420 2755 
Q 1159 2438 1159 1844 
L 1159 0 
L 581 0 
L 581 3500 
L 1159 3500 
L 1159 2956 
Q 1341 3275 1631 3429 
Q 1922 3584 2338 3584 
Q 2397 3584 2469 3576 
Q 2541 3569 2628 3553 
L 2631 2963 
z
" transform="scale(0.015625)"/>
       <path id="DejaVuSans-65" d="M 3597 1894 
L 3597 1613 
L 953 1613 
Q 991 1019 1311 708 
Q 1631 397 2203 397 
Q 2534 397 2845 478 
Q 3156 559 3463 722 
L 3463 178 
Q 3153 47 2828 -22 
Q 2503 -91 2169 -91 
Q 1331 -91 842 396 
Q 353 884 353 1716 
Q 353 2575 817 3079 
Q 1281 3584 2069 3584 
Q 2775 3584 3186 3129 
Q 3597 2675 3597 1894 
z
M 3022 2063 
Q 3016 2534 2758 2815 
Q 2500 3097 2075 3097 
Q 1594 3097 1305 2825 
Q 1016 2553 972 2059 
L 3022 2063 
z
" transform="scale(0.015625)"/>
       <path id="DejaVuSans-6d" d="M 3328 2828 
Q 3544 3216 3844 3400 
Q 4144 3584 4550 3584 
Q 5097 3584 5394 3201 
Q 5691 2819 5691 2113 
L 5691 0 
L 5113 0 
L 5113 2094 
Q 5113 2597 4934 2840 
Q 4756 3084 4391 3084 
Q 3944 3084 3684 2787 
Q 3425 2491 3425 1978 
L 3425 0 
L 2847 0 
L 2847 2094 
Q 2847 2600 2669 2842 
Q 2491 3084 2119 3084 
Q 1678 3084 1418 2786 
Q 1159 2488 1159 1978 
L 1159 0 
L 581 0 
L 581 3500 
L 1159 3500 
L 1159 2956 
Q 1356 3278 1631 3431 
Q 1906 3584 2284 3584 
Q 2666 3584 2933 3390 
Q 3200 3197 3328 2828 
z
" transform="scale(0.015625)"/>
       <path id="DejaVuSans-6f" d="M 1959 3097 
Q 1497 3097 1228 2736 
Q 959 2375 959 1747 
Q 959 1119 1226 758 
Q 1494 397 1959 397 
Q 2419 397 2687 759 
Q 2956 1122 2956 1747 
Q 2956 2369 2687 2733 
Q 2419 3097 1959 3097 
z
M 1959 3584 
Q 2709 3584 3137 3096 
Q 3566 2609 3566 1747 
Q 3566 888 3137 398 
Q 2709 -91 1959 -91 
Q 1206 -91 779 398 
Q 353 888 353 1747 
Q 353 2609 779 3096 
Q 1206 3584 1959 3584 
z
" transform="scale(0.015625)"/>
       <path id="DejaVuSans-76" d="M 191 3500 
L 800 3500 
L 1894 563 
L 2988 3500 
L 3597 3500 
L 2284 0 
L 1503 0 
L 191 3500 
z
" transform="scale(0.015625)"/>
       <path id="DejaVuSans-64" d="M 2906 2969 
L 2906 4863 
L 3481 4863 
L 3481 0 
L 2906 0 
L 2906 525 
Q 2725 213 2448 61 
Q 2172 -91 1784 -91 
Q 1150 -91 751 415 
Q 353 922 353 1747 
Q 353 2572 751 3078 
Q 1150 3584 1784 3584 
Q 2172 3584 2448 3432 
Q 2725 3281 2906 2969 
z
M 947 1747 
Q 947 1113 1208 752 
Q 1469 391 1925 391 
Q 2381 391 2643 752 
Q 2906 1113 2906 1747 
Q 2906 2381 2643 2742 
Q 2381 3103 1925 3103 
Q 1469 3103 1208 2742 
Q 947 2381 947 1747 
z
" transform="scale(0.015625)"/>
       <path id="DejaVuSans-20" transform="scale(0.015625)"/>
       <path id="DejaVuSans-67" d="M 2906 1791 
Q 2906 2416 2648 2759 
Q 2391 3103 1925 3103 
Q 1463 3103 1205 2759 
Q 947 2416 947 1791 
Q 947 1169 1205 825 
Q 1463 481 1925 481 
Q 2391 481 2648 825 
Q 2906 1169 2906 1791 
z
M 3481 434 
Q 3481 -459 3084 -895 
Q 2688 -1331 1869 -1331 
Q 1566 -1331 1297 -1286 
Q 1028 -1241 775 -1147 
L 775 -588 
Q 1028 -725 1275 -790 
Q 1522 -856 1778 -856 
Q 2344 -856 2625 -561 
Q 2906 -266 2906 331 
L 2906 616 
Q 2728 306 2450 153 
Q 2172 0 1784 0 
Q 1141 0 747 490 
Q 353 981 353 1791 
Q 353 2603 747 3093 
Q 1141 3584 1784 3584 
Q 2172 3584 2450 3431 
Q 2728 3278 2906 2969 
L 2906 3500 
L 3481 3500 
L 3481 434 
z
" transform="scale(0.015625)"/>
      </defs>
      <use xlink:href="#DejaVuSans-72"/>
      <use xlink:href="#DejaVuSans-65" x="38.863281"/>
      <use xlink:href="#DejaVuSans-6d" x="100.386719"/>
      <use xlink:href="#DejaVuSans-6f" x="197.798828"/>
      <use xlink:href="#DejaVuSans-76" x="258.980469"/>
      <use xlink:href="#DejaVuSans-65" x="318.160156"/>
      <use xlink:href="#DejaVuSans-64" x="379.683594"/>
      <use xlink:href="#DejaVuSans-20" x="443.160156"/>
      <use xlink:href="#DejaVuSans-65" x="474.947266"/>
      <use xlink:href="#DejaVuSans-64" x="536.470703"/>
      <use xlink:href="#DejaVuSans-67" x="599.947266"/>
      <use xlink:href="#DejaVuSans-65" x="663.423828"/>
     </g>
    </g>
    <g id="line2d_2">
     <path d="M 213.392187 229.721165 
L 225.892187 229.721165 
L 238.392187 229.721165 
" style="fill: none; stroke: #007a5e; stroke-width: 2.4; stroke-linecap: square"/>
    </g>
    <g id="text_15">
     <!-- added edge -->
     <g transform="translate(246.392187 233.221165) scale(0.1 -0.1)">
      <defs>
       <path id="DejaVuSans-61" d="M 2194 1759 
Q 1497 1759 1228 1600 
Q 959 1441 959 1056 
Q 959 750 1161 570 
Q 1363 391 1709 391 
Q 2188 391 2477 730 
Q 2766 1069 2766 1631 
L 2766 1759 
L 2194 1759 
z
M 3341 1997 
L 3341 0 
L 2766 0 
L 2766 531 
Q 2569 213 2275 61 
Q 1981 -91 1556 -91 
Q 1019 -91 701 211 
Q 384 513 384 1019 
Q 384 1609 779 1909 
Q 1175 2209 1959 2209 
L 2766 2209 
L 2766 2266 
Q 2766 2663 2505 2880 
Q 2244 3097 1772 3097 
Q 1472 3097 1187 3025 
Q 903 2953 641 2809 
L 641 3341 
Q 956 3463 1253 3523 
Q 1550 3584 1831 3584 
Q 2591 3584 2966 3190 
Q 3341 2797 3341 1997 
z
" transform="scale(0.015625)"/>
      </defs>
      <use xlink:href="#DejaVuSans-61"/>
      <use xlink:href="#DejaVuSans-64" x="61.279297"/>
      <use xlink:href="#DejaVuSans-64" x="124.755859"/>
      <use xlink:href="#DejaVuSans-65" x="188.232422"/>
      <use xlink:href="#DejaVuSans-64" x="249.755859"/>
      <use xlink:href="#DejaVuSans-20" x="313.232422"/>
      <use xlink:href="#DejaVuSans-65" x="345.019531"/>
      <use xlink:href="#DejaVuSans-64" x="406.542969"/>
      <use xlink:href="#DejaVuSans-67" x="470.019531"/>
      <use xlink:href="#DejaVuSans-65" x="533.496094"/>
     </g>
    </g>
    <g id="line2d_3">
     <path d="M 325.9 229.721165 
L 338.4 229.721165 
L 350.9 229.721165 
" style="fill: none; stroke: #8c8c8c; stroke-opacity: 0.5; stroke-width: 1.4; stroke-linecap: square"/>
    </g>
    <g id="text_16">
     <!-- unchanged edge -->
     <g transform="translate(358.9 233.221165) scale(0.1 -0.1)">
      <defs>
       <path id="DejaVuSans-75" d="M 544 1381 
L 544 3500 
L 1119 3500 
L 1119 1403 
Q 1119 906 1312 657 
Q 1506 409 1894 409 
Q 2359 409 2629 706 
Q 2900 1003 2900 1516 
L 2900 3500 
L 3475 3500 
L 3475 0 
L 2900 0 
L 2900 538 
Q 2691 219 2414 64 
Q 2138 -91 1772 -91 
Q 1169 -91 856 284 
Q 544 659 544 1381 
z
M 1991 3584 
L 1991 3584 
z
" transform="scale(0.015625)"/>
       <path id="DejaVuSans-6e" d="M 3513 2113 
L 3513 0 
L 2938 0 
L 2938 2094 
Q 2938 2591 2744 2837 
Q 2550 3084 2163 3084 
Q 1697 3084 1428 2787 
Q 1159 2491 1159 1978 
L 1159 0 
L 581 0 
L 581 3500 
L 1159 3500 
L 1159 2956 
Q 1366 3272 1645 3428 
Q 1925 3584 2291 3584 
Q 2894 3584 3203 3211 
Q 3513 2838 3513 2113 
z
" transform="scale(0.015625)"/>
       <path id="DejaVuSans-63" d="M 3122 3366 
L 3122 2828 
Q 2878 2963 2633 3030 
Q 2388 3097 2138 3097 
Q 1578 3097 1268 2742 
Q 959 2388 959 1747 
Q 959 1106 1268 751 
Q 1578 397 2138 397 
Q 2388 397 2633 464 
Q 2878 531 3122 666 
L 3122 134 
Q 2881 22 2623 -34 
Q 2366 -91 2075 -91 
Q 1284 -91 818 406 
Q 353 903 353 1747 
Q 353 2603 823 3093 
Q 1294 3584 2113 3584 
Q 2378 3584 2631 3529 
Q 2884 3475 3122 3366 
z
" transform="scale(0.015625)"/>
       <path id="DejaVuSans-68" d="M 3513 2113 
L 3513 0 
L 2938 0 
L 2938 2094 
Q 2938 2591 2744 2837 
Q 2550 3084 2163 3084 
Q 1697 3084 1428 2787 
Q 1159 2491 1159 1978 
L 1159 0 
L 581 0 
L 581 4863 
L 1159 4863 
L 1159 2956 
Q 1366 3272 1645 3428 
Q 1925 3584 2291 3584 
Q 2894 3584 3203 3211 
Q 3513 2838 3513 2113 
z
" transform="scale(0.015625)"/>
      </defs>
      <use xlink:href="#DejaVuSans-75"/>
      <use xlink:href="#DejaVuSans-6e" x="63.378906"/>
      <use xlink:href="#DejaVuSans-63" x="126.757812"/>
      <use xlink:href="#DejaVuSans-68" x="181.738281"/>
      <use xlink:href="#DejaVuSans-61" x="245.117188"/>
      <use xlink:href="#DejaVuSans-6e" x="306.396484"/>
      <use xlink:href="#DejaVuSans-67" x="369.775391"/>
      <use xlink:href="#DejaVuSans-65" x="433.251953"/>
      <use xlink:href="#DejaVuSans-64" x="494.775391"/>
      <use xlink:href="#DejaVuSans-20" x="558.251953"/>
      <use xlink:href="#DejaVuSans-65" x="590.039062"/>
      <use xlink:href="#DejaVuSans-64" x="651.5625"/>
      <use xlink:href="#DejaVuSans-67" x="715.039062"/>
      <use xlink:href="#DejaVuSans-65" x="778.515625"/>
     </g>
    </g>
   </g>
  </g>
 </g>
 <defs>
  <clipPath id="p8d3a945fbc">
   <rect x="7.2" y="7.2" width="516.4" height="205.3164"/>
  </clipPath>
 </defs>
</svg>
